<svg width="564" height="124" viewBox="0 0 564 124" fill="none" xmlns="http://www.w3.org/2000/svg">
<g clip-path="url(#clip0_1_3334)">
<path d="M138.173 88.776C133.803 88.776 130.307 85.556 130.307 80.841C130.307 76.126 133.803 72.906 138.173 72.906C141.186 72.906 143.072 74.355 144.268 76.149L142.313 77.184C141.508 75.896 139.99 74.953 138.173 74.953C135.068 74.953 132.676 77.391 132.676 80.841C132.676 84.268 135.068 86.729 138.173 86.729C139.99 86.729 141.508 85.786 142.313 84.498L144.268 85.533C143.049 87.327 141.186 88.776 138.173 88.776ZM154.013 88.5V86.982C153.162 87.902 151.759 88.776 150.057 88.776C147.688 88.776 146.515 87.58 146.515 85.234V77.391H148.585V84.544C148.585 86.384 149.505 86.936 150.931 86.936C152.219 86.936 153.392 86.2 154.013 85.372V77.391H156.083V88.5H154.013ZM158.397 87.051L159.386 85.533C160.145 86.361 161.617 87.12 163.112 87.12C164.676 87.12 165.504 86.476 165.504 85.533C165.504 84.429 164.239 84.061 162.813 83.739C160.927 83.302 158.719 82.796 158.719 80.404C158.719 78.633 160.237 77.115 162.951 77.115C164.86 77.115 166.24 77.805 167.183 78.702L166.263 80.151C165.619 79.369 164.377 78.794 162.974 78.794C161.571 78.794 160.697 79.346 160.697 80.243C160.697 81.209 161.893 81.531 163.273 81.853C165.205 82.29 167.505 82.819 167.505 85.372C167.505 87.281 165.941 88.776 163.02 88.776C161.157 88.776 159.524 88.201 158.397 87.051ZM173.18 88.776C171.432 88.776 170.535 87.787 170.535 86.039V79.208H168.695V77.391H170.535V74.355H172.605V77.391H174.859V79.208H172.605V85.579C172.605 86.361 172.973 86.936 173.686 86.936C174.169 86.936 174.606 86.729 174.813 86.499L175.342 88.063C174.905 88.477 174.261 88.776 173.18 88.776ZM182.074 88.776C178.624 88.776 176.462 86.154 176.462 82.934C176.462 79.737 178.624 77.115 182.074 77.115C185.547 77.115 187.686 79.737 187.686 82.934C187.686 86.154 185.547 88.776 182.074 88.776ZM182.074 86.936C184.305 86.936 185.524 85.05 185.524 82.934C185.524 80.841 184.305 78.955 182.074 78.955C179.866 78.955 178.624 80.841 178.624 82.934C178.624 85.05 179.866 86.936 182.074 86.936ZM203.815 88.5V81.094C203.815 79.806 203.24 78.955 201.883 78.955C200.756 78.955 199.652 79.737 199.123 80.542V88.5H197.053V81.094C197.053 79.806 196.501 78.955 195.098 78.955C194.017 78.955 192.936 79.76 192.384 80.565V88.5H190.314V77.391H192.384V78.955C192.844 78.265 194.316 77.115 195.972 77.115C197.651 77.115 198.64 77.989 198.985 79.185C199.629 78.15 201.101 77.115 202.734 77.115C204.781 77.115 205.885 78.242 205.885 80.473V88.5H203.815ZM208.491 82.934C208.491 79.714 210.814 77.115 214.057 77.115C217.392 77.115 219.462 79.714 219.462 83.118V83.624H210.676C210.837 85.51 212.217 87.074 214.448 87.074C215.621 87.074 216.909 86.614 217.737 85.763L218.703 87.12C217.599 88.201 216.035 88.776 214.241 88.776C210.929 88.776 208.491 86.43 208.491 82.934ZM214.057 78.817C211.826 78.817 210.768 80.611 210.653 82.129H217.438C217.392 80.657 216.403 78.817 214.057 78.817ZM222.051 88.5V77.391H224.121V79.093C224.972 77.989 226.283 77.138 227.755 77.138V79.231C227.548 79.185 227.318 79.162 227.042 79.162C226.007 79.162 224.604 79.944 224.121 80.772V88.5H222.051ZM234.855 86.338L236.166 84.567C237.201 85.717 238.857 86.729 240.996 86.729C243.48 86.729 244.354 85.464 244.354 84.36C244.354 82.75 242.606 82.29 240.651 81.784C238.19 81.14 235.338 80.427 235.338 77.299C235.338 74.769 237.569 72.929 240.766 72.929C243.135 72.929 244.998 73.688 246.355 75.068L245.021 76.77C243.848 75.528 242.238 74.976 240.582 74.976C238.88 74.976 237.707 75.85 237.707 77.138C237.707 78.518 239.363 78.955 241.272 79.438C243.779 80.105 246.7 80.887 246.7 84.153C246.7 86.545 245.044 88.776 240.904 88.776C238.167 88.776 236.166 87.787 234.855 86.338ZM256.817 88.5V81.347C256.817 79.507 255.874 78.955 254.448 78.955C253.16 78.955 251.987 79.737 251.389 80.565V88.5H249.319V73.159H251.389V78.955C252.125 78.058 253.62 77.115 255.322 77.115C257.691 77.115 258.887 78.311 258.887 80.657V88.5H256.817ZM270.101 88.5V86.913C269.273 88.017 267.939 88.776 266.467 88.776C263.569 88.776 261.499 86.591 261.499 82.957C261.499 79.392 263.569 77.115 266.467 77.115C267.893 77.115 269.227 77.805 270.101 79.001V77.391H272.171V88.5H270.101ZM270.101 85.326V80.611C269.526 79.714 268.284 78.978 267.019 78.978C264.949 78.978 263.661 80.634 263.661 82.957C263.661 85.257 264.949 86.936 267.019 86.936C268.284 86.936 269.526 86.223 270.101 85.326ZM275.486 88.5V77.391H277.556V79.093C278.407 77.989 279.718 77.138 281.19 77.138V79.231C280.983 79.185 280.753 79.162 280.477 79.162C279.442 79.162 278.039 79.944 277.556 80.772V88.5H275.486ZM282.567 82.934C282.567 79.714 284.89 77.115 288.133 77.115C291.468 77.115 293.538 79.714 293.538 83.118V83.624H284.752C284.913 85.51 286.293 87.074 288.524 87.074C289.697 87.074 290.985 86.614 291.813 85.763L292.779 87.12C291.675 88.201 290.111 88.776 288.317 88.776C285.005 88.776 282.567 86.43 282.567 82.934ZM288.133 78.817C285.902 78.817 284.844 80.611 284.729 82.129H291.514C291.468 80.657 290.479 78.817 288.133 78.817ZM302.103 88.5V73.159H309.302C312.039 73.159 313.626 74.838 313.626 77.069C313.626 79.001 312.361 80.289 310.958 80.588C312.591 80.841 313.925 82.497 313.925 84.36C313.925 86.775 312.315 88.5 309.486 88.5H302.103ZM304.403 79.668H308.865C310.406 79.668 311.257 78.702 311.257 77.437C311.257 76.172 310.406 75.183 308.865 75.183H304.403V79.668ZM304.403 86.476H308.98C310.59 86.476 311.556 85.556 311.556 84.061C311.556 82.796 310.682 81.692 308.98 81.692H304.403V86.476ZM324.636 88.5V86.913C323.808 88.017 322.474 88.776 321.002 88.776C318.104 88.776 316.034 86.591 316.034 82.957C316.034 79.392 318.104 77.115 321.002 77.115C322.428 77.115 323.762 77.805 324.636 79.001V77.391H326.706V88.5H324.636ZM324.636 85.326V80.611C324.061 79.714 322.819 78.978 321.554 78.978C319.484 78.978 318.196 80.634 318.196 82.957C318.196 85.257 319.484 86.936 321.554 86.936C322.819 86.936 324.061 86.223 324.636 85.326ZM329.055 87.051L330.044 85.533C330.803 86.361 332.275 87.12 333.77 87.12C335.334 87.12 336.162 86.476 336.162 85.533C336.162 84.429 334.897 84.061 333.471 83.739C331.585 83.302 329.377 82.796 329.377 80.404C329.377 78.633 330.895 77.115 333.609 77.115C335.518 77.115 336.898 77.805 337.841 78.702L336.921 80.151C336.277 79.369 335.035 78.794 333.632 78.794C332.229 78.794 331.355 79.346 331.355 80.243C331.355 81.209 332.551 81.531 333.931 81.853C335.863 82.29 338.163 82.819 338.163 85.372C338.163 87.281 336.599 88.776 333.678 88.776C331.815 88.776 330.182 88.201 329.055 87.051ZM341.792 75.528C341.079 75.528 340.458 74.953 340.458 74.217C340.458 73.481 341.079 72.883 341.792 72.883C342.528 72.883 343.126 73.481 343.126 74.217C343.126 74.953 342.528 75.528 341.792 75.528ZM340.78 88.5V77.391H342.85V88.5H340.78ZM345.458 82.934C345.458 79.599 347.758 77.115 351.116 77.115C353.209 77.115 354.474 77.989 355.279 79.07L353.899 80.335C353.232 79.392 352.335 78.955 351.208 78.955C349.023 78.955 347.62 80.634 347.62 82.934C347.62 85.234 349.023 86.936 351.208 86.936C352.335 86.936 353.232 86.476 353.899 85.556L355.279 86.821C354.474 87.902 353.209 88.776 351.116 88.776C347.758 88.776 345.458 86.269 345.458 82.934ZM363.534 88.5V73.159H369.008C373.792 73.159 376.966 76.425 376.966 80.841C376.966 85.28 373.792 88.5 369.008 88.5H363.534ZM365.834 86.476H369.008C372.55 86.476 374.597 83.946 374.597 80.841C374.597 77.69 372.619 75.183 369.008 75.183H365.834V86.476ZM379.014 82.934C379.014 79.714 381.337 77.115 384.58 77.115C387.915 77.115 389.985 79.714 389.985 83.118V83.624H381.199C381.36 85.51 382.74 87.074 384.971 87.074C386.144 87.074 387.432 86.614 388.26 85.763L389.226 87.12C388.122 88.201 386.558 88.776 384.764 88.776C381.452 88.776 379.014 86.43 379.014 82.934ZM384.58 78.817C382.349 78.817 381.291 80.611 381.176 82.129H387.961C387.915 80.657 386.926 78.817 384.58 78.817ZM395.633 88.776C393.885 88.776 392.988 87.787 392.988 86.039V79.208H391.148V77.391H392.988V74.355H395.058V77.391H397.312V79.208H395.058V85.579C395.058 86.361 395.426 86.936 396.139 86.936C396.622 86.936 397.059 86.729 397.266 86.499L397.795 88.063C397.358 88.477 396.714 88.776 395.633 88.776ZM407.517 88.5V86.913C406.689 88.017 405.355 88.776 403.883 88.776C400.985 88.776 398.915 86.591 398.915 82.957C398.915 79.392 400.985 77.115 403.883 77.115C405.309 77.115 406.643 77.805 407.517 79.001V77.391H409.587V88.5H407.517ZM407.517 85.326V80.611C406.942 79.714 405.7 78.978 404.435 78.978C402.365 78.978 401.077 80.634 401.077 82.957C401.077 85.257 402.365 86.936 404.435 86.936C405.7 86.936 406.942 86.223 407.517 85.326ZM413.914 75.528C413.201 75.528 412.58 74.953 412.58 74.217C412.58 73.481 413.201 72.883 413.914 72.883C414.65 72.883 415.248 73.481 415.248 74.217C415.248 74.953 414.65 75.528 413.914 75.528ZM412.902 88.5V77.391H414.972V88.5H412.902ZM420.915 88.776C419.144 88.776 418.27 87.787 418.27 86.039V73.159H420.34V85.579C420.34 86.361 420.708 86.936 421.421 86.936C421.904 86.936 422.318 86.729 422.525 86.499L423.077 88.063C422.64 88.477 421.973 88.776 420.915 88.776ZM423.683 87.051L424.672 85.533C425.431 86.361 426.903 87.12 428.398 87.12C429.962 87.12 430.79 86.476 430.79 85.533C430.79 84.429 429.525 84.061 428.099 83.739C426.213 83.302 424.005 82.796 424.005 80.404C424.005 78.633 425.523 77.115 428.237 77.115C430.146 77.115 431.526 77.805 432.469 78.702L431.549 80.151C430.905 79.369 429.663 78.794 428.26 78.794C426.857 78.794 425.983 79.346 425.983 80.243C425.983 81.209 427.179 81.531 428.559 81.853C430.491 82.29 432.791 82.819 432.791 85.372C432.791 87.281 431.227 88.776 428.306 88.776C426.443 88.776 424.81 88.201 423.683 87.051Z" fill="#2A2A2A"/>
</g>
<rect x="24" y="6.5" width="516" height="7" fill="#D9D9D9"/>
<rect x="14" y="0.5" width="19" height="19" rx="9.5" fill="#D9D9D9"/>
<rect x="143.25" y="0.5" width="19" height="19" rx="9.5" fill="#D9D9D9"/>
<rect x="272.5" y="0.5" width="19" height="19" rx="9.5" fill="#D9D9D9"/>
<rect x="401.75" y="0.5" width="19" height="19" rx="9.5" fill="#D9D9D9"/>
<rect x="531" y="0.5" width="19" height="19" rx="9.5" fill="#D9D9D9"/>
<rect x="17" y="3.5" width="13" height="13" rx="6.5" fill="#FF1680"/>
<rect x="28" y="7.5" width="1" height="5" fill="#FF1680"/>
<defs>
<clipPath id="clip0_1_3334">
<rect width="564" height="82" fill="white" transform="translate(0 41.5)"/>
</clipPath>
</defs>
</svg>
